# xmcd CD database file
#
# Track frame offsets:
#	150
#	40988
#	78947
#	86131
#	129548
#	156827
#	165428
#	209307
#	246736
#	258262
#	286949
#	294549
#
# Disc length: 4325 seconds
#
# Revision: 0
# Processed by: cddbd v1.5.2PL0 Copyright (c) Steve Scherf et al.
# Submitted via: CDex 2.12
#
DISCID=aa10e30c
DTITLE=Ruby Rushton - Trudi's Songbook Volume One and Two
DYEAR=2019
DGENRE=Jazz
TTITLE0=Moonlight Woman
TTITLE1=Elephant and Castle
TTITLE2=Trudi's Mood part 1
TTITLE3=Prayer For Yusef
TTITLE4=Where Are You Now?
TTITLE5=The Camel's Back
TTITLE6=Tisbury Truckin
TTITLE7=Song For Christpher
TTITLE8=Trudi's Mood part 2
TTITLE9=Charlotte Emma Victoria
TTITLE10=Toghether At Last
TTITLE11=Butterfly
EXTD=YEAR: 2019
EXTT0=
EXTT1=
EXTT2=
EXTT3=
EXTT4=
EXTT5=
EXTT6=
EXTT7=
EXTT8=
EXTT9=
EXTT10=
EXTT11=
PLAYORDER=
